name C:\Users\u0101727\Documents\MyRepositories\upper-imu-dc\Results\main_tracking\Case_10\FLX01_orientations_groundFrame.mot
datacolumns 13
datarows 43
range 0.51000000 0.93000000
endheader 
time	radius_imu_[0][0]	radius_imu_[0][1]	radius_imu_[0][2]	radius_imu_[1][0]	radius_imu_[1][1]	radius_imu_[1][2]	radius_imu_[2][0]	radius_imu_[2][1]	radius_imu_[2][2]	radius_imu_x	radius_imu_y	radius_imu_z	
          0.51000000	          0.71745956	         -0.05657080	          0.69429931	         -0.13882663	          0.96509180	          0.22209227	         -0.68262651	         -0.25572945	          0.68456080	         -0.31371654	          0.76744584	          0.07868597	
          0.52000000	          0.70538086	         -0.05972931	          0.70630748	         -0.14103311	          0.96469447	          0.22242805	         -0.69465639	         -0.25650923	          0.67205320	         -0.31962017	          0.78426842	          0.08447516	
          0.53000000	          0.69152463	         -0.06356364	          0.71955079	         -0.14361238	          0.96413810	          0.22318873	         -0.70793302	         -0.25767691	          0.65759672	         -0.32720113	          0.80315524	          0.09166055	
          0.54000000	          0.68082900	         -0.06626228	          0.72943895	         -0.14633844	          0.96351380	          0.22411208	         -0.71767467	         -0.25932696	          0.64629141	         -0.33379111	          0.81750140	          0.09702032	
          0.55000000	          0.67315172	         -0.06813843	          0.73635855	         -0.14884659	          0.96288280	          0.22516973	         -0.72436970	         -0.26117785	          0.63802404	         -0.33927140	          0.82767243	          0.10087939	
          0.56000000	          0.67204252	         -0.06794084	          0.73738924	         -0.15099563	          0.96228846	          0.22627693	         -0.72495460	         -0.26341027	          0.63643999	         -0.34159757	          0.82919704	          0.10075373	
          0.57000000	          0.66709742	         -0.06968316	          0.74170432	         -0.15257257	          0.96173219	          0.22758032	         -0.72917943	         -0.26498198	          0.63093732	         -0.34617685	          0.83560780	          0.10407979	
          0.58000000	          0.66396237	         -0.07169481	          0.74432105	         -0.15325662	          0.96121546	          0.22929727	         -0.73189233	         -0.26631689	          0.62722319	         -0.35048238	          0.83951760	          0.10756347	
          0.59000000	          0.66228796	         -0.07426796	          0.74555948	         -0.15294026	          0.96072339	          0.23155960	         -0.73347388	         -0.26738520	          0.62491697	         -0.35485885	          0.84137395	          0.11167193	
          0.60000000	          0.66220729	         -0.07739805	          0.74531271	         -0.15161000	          0.96023985	          0.23442233	         -0.73382280	         -0.26823304	          0.62414352	         -0.35928821	          0.84100375	          0.11635100	
          0.61000000	          0.66398174	         -0.08099176	          0.74334957	         -0.14926522	          0.95975227	          0.23789804	         -0.73269921	         -0.26891619	          0.62516873	         -0.36361367	          0.83806407	          0.12137927	
          0.62000000	          0.66786147	         -0.08496370	          0.73942020	         -0.14588096	          0.95925037	          0.24198654	         -0.72984917	         -0.26948081	          0.62825177	         -0.36766077	          0.83220874	          0.12653783	
          0.63000000	          0.67400716	         -0.08926872	          0.73331129	         -0.14140880	          0.95872395	          0.24668187	         -0.72506406	         -0.26996202	          0.63356342	         -0.37129718	          0.82317955	          0.13167839	
          0.64000000	          0.68241484	         -0.09390390	          0.72490830	         -0.13580590	          0.95816011	          0.25196419	         -0.71823864	         -0.27039093	          0.64110998	         -0.37446814	          0.81090127	          0.13674651	
          0.65000000	          0.69284548	         -0.09889751	          0.71427196	         -0.12907927	          0.95754068	          0.25778750	         -0.70943899	         -0.27080461	          0.65066211	         -0.37721982	          0.79558330	          0.14178331	
          0.66000000	          0.70479284	         -0.10429383	          0.70170496	         -0.12132676	          0.95684072	          0.26407511	         -0.69896128	         -0.27125383	          0.66172086	         -0.37970722	          0.77778771	          0.14691185	
          0.67000000	          0.71752080	         -0.11013752	          0.68777440	         -0.11275704	          0.95602922	          0.27072861	         -0.68734980	         -0.27180481	          0.67355207	         -0.38217906	          0.75841870	          0.15230854	
          0.68000000	          0.73017464	         -0.11645827	          0.67326255	         -0.10367897	          0.95507196	          0.27764767	         -0.67534855	         -0.27253445	          0.68529505	         -0.38493860	          0.73861239	          0.15816157	
          0.69000000	          0.74192778	         -0.12325931	          0.65905258	         -0.09446304	          0.95393570	          0.28475150	         -0.66379206	         -0.27352116	          0.69610795	         -0.38829419	          0.71955836	          0.16463021	
          0.70000000	          0.75210554	         -0.13051532	          0.64598994	         -0.08548860	          0.95259224	          0.29199268	         -0.65347452	         -0.27483409	          0.70529233	         -0.39251879	          0.70231941	          0.17182215	
          0.71000000	          0.76024692	         -0.13818066	          0.63476825	         -0.07709445	          0.95102088	          0.29935888	         -0.64504347	         -0.27652377	          0.71235773	         -0.39782920	          0.68770856	          0.17979486	
          0.72000000	          0.76610144	         -0.14620395	          0.62586979	         -0.06954601	          0.94920882	          0.30686475	         -0.63894596	         -0.27861627	          0.71702234	         -0.40438439	          0.67624625	          0.18857400	
          0.73000000	          0.76958388	         -0.15454273	          0.61956210	         -0.06302331	          0.94714987	          0.31453965	         -0.63542798	         -0.28111150	          0.71917147	         -0.41229621	          0.66818471	          0.19817752	
          0.74000000	          0.77071558	         -0.16317293	          0.61593189	         -0.05762663	          0.94484229	          0.32241622	         -0.63456810	         -0.28398528	          0.71880156	         -0.42164488	          0.66356832	          0.20863529	
          0.75000000	          0.76957549	         -0.17209073	          0.61492954	         -0.05339222	          0.94228661	          0.33052263	         -0.63631976	         -0.28719457	          0.71597238	         -0.43249280	          0.66229662	          0.21999840	
          0.76000000	          0.76627165	         -0.18130736	          0.61640523	         -0.05031053	          0.93948379	          0.33887911	         -0.64054400	         -0.29068513	          0.71077813	         -0.44489314	          0.66416930	          0.23233693	
          0.77000000	          0.76093053	         -0.19084076	          0.62013268	         -0.04834198	          0.93643389	          0.34749765	         -0.64702997	         -0.29440001	          0.70333552	         -0.45889313	          0.66891181	          0.24573070	
          0.78000000	          0.75369538	         -0.20070833	          0.62582701	         -0.04742823	          0.93313522	          0.35638355	         -0.65551037	         -0.29828650	          0.69378046	         -0.47453436	          0.67619140	          0.26025911	
          0.79000000	          0.74472619	         -0.21092305	          0.63316219	         -0.04749888	          0.92958399	          0.36553723	         -0.66567767	         -0.30229964	          0.68226693	         -0.49185141	          0.68563184	          0.27599422	
          0.80000000	          0.73419794	         -0.22149321	          0.64178979	         -0.04847439	          0.92577461	          0.37495547	         -0.67720279	         -0.30640190	          0.66896507	         -0.51086950	          0.69682985	          0.29299784	
          0.81000000	          0.72229744	         -0.23242420	          0.65135659	         -0.05026617	          0.92170035	          0.38463201	         -0.68975338	         -0.31055991	          0.65405872	         -0.53160091	          0.70937094	          0.31132094	
          0.82000000	          0.70922277	         -0.24371948	          0.66151634	         -0.05277556	          0.91735411	          0.39455820	         -0.70300626	         -0.31474155	          0.63774600	         -0.55403885	          0.72283894	          0.33100043	
          0.83000000	          0.69518754	         -0.25537882	          0.67193447	         -0.05589365	          0.91272895	          0.40472431	         -0.71665206	         -0.31891617	          0.62024374	         -0.57814795	          0.73681770	          0.35204914	
          0.84000000	          0.68042411	         -0.26739486	          0.68229247	         -0.05950493	          0.90781780	          0.41512168	         -0.73039865	         -0.32305857	          0.60178981	         -0.60385544	          0.75089380	          0.37444232	
          0.85000000	          0.66517712	         -0.27975134	          0.69229950	         -0.06349613	          0.90261245	          0.42574524	         -0.74398095	         -0.32715433	          0.58263402	         -0.63105055	          0.76467082	          0.39810961	
          0.86000000	          0.64968586	         -0.29242477	          0.70170937	         -0.06776822	          0.89710207	          0.43659518	         -0.75717617	         -0.33120331	          0.56301742	         -0.65959482	          0.77779390	          0.42293857	
          0.87000000	          0.63416595	         -0.30538865	          0.71033183	         -0.07224425	          0.89127215	          0.44767702	         -0.76981447	         -0.33521892	          0.54315188	         -0.68933617	          0.78996954	          0.44878669	
          0.88000000	          0.61880602	         -0.31861753	          0.71802645	         -0.07686439	          0.88510502	          0.45899997	         -0.78177425	         -0.33922261	          0.52321797	         -0.72011048	          0.80096266	          0.47548916	
          0.89000000	          0.60378884	         -0.33208850	          0.72467666	         -0.08156388	          0.87858230	          0.47057461	         -0.79296051	         -0.34323514	          0.50339176	         -0.75171657	          0.81056505	          0.50284910	
          0.90000000	          0.58933036	         -0.34578042	          0.73015452	         -0.08623692	          0.87168923	          0.48241173	         -0.80327637	         -0.34726615	          0.48389389	         -0.78386432	          0.81854807	          0.53060831	
          0.91000000	          0.57571987	         -0.35967227	          0.73429046	         -0.09069639	          0.86441959	          0.49452294	         -0.81260125	         -0.35130418	          0.46504256	         -0.81611113	          0.82462086	          0.55840863	
          0.92000000	          0.56334583	         -0.37374090	          0.73685766	         -0.09464209	          0.85678008	          0.50692285	         -0.82078277	         -0.35531062	          0.44729186	         -0.84780921	          0.82841041	          0.58575895	
          0.93000000	          0.55269621	         -0.38795792	          0.73757410	         -0.09764849	          0.84879276	          0.51963027	         -0.82764224	         -0.35922068	          0.43124103	         -0.87808785	          0.82947076	          0.61202479	
